<svg width="513" height="359" viewBox="0 0 513 359" fill="none" xmlns="http://www.w3.org/2000/svg">
<g clip-path="url(#clip0)">
<path d="M453.03 349.975L444.448 349.974L440.365 316.874L453.031 316.874L453.03 349.975Z" fill="#FFB8B8"/>
<path d="M455.219 358.294L427.545 358.293V357.943C427.546 355.086 428.68 352.347 430.7 350.327C432.72 348.307 435.46 347.173 438.317 347.172H438.317L455.219 347.173L455.219 358.294Z" fill="#2F2E41"/>
<path d="M490.909 328.877L485.338 335.405L457.505 317.025L465.728 307.391L490.909 328.877Z" fill="#FFB8B8"/>
<path d="M498.658 332.612L480.695 353.661L480.429 353.434C478.256 351.579 476.909 348.938 476.683 346.091C476.458 343.243 477.373 340.423 479.227 338.25L479.227 338.249L490.199 325.393L498.658 332.612Z" fill="#2F2E41"/>
<path d="M392.091 187.19L389.419 211.826L497.416 210.286L450.318 133.552L411.863 132.171L392.091 187.19Z" fill="#2F2E41"/>
<path opacity="0.28" d="M392.091 187.19L389.419 211.826L497.416 210.286L450.318 133.552L411.863 132.171L392.091 187.19Z" fill="black"/>
<path d="M413.327 191.42L409.515 213.962V234.111L440.255 244.144C440.255 244.144 436.656 322.407 441.454 327.392L441.336 339.425L454.746 340.035L454.856 331.566L460.541 268.266L463.89 221.79L458.461 186.554L413.327 191.42Z" fill="#2F2E41"/>
<path d="M437.143 210.824L409.515 234.111C409.515 234.111 407.898 276.125 412.004 281.053C415.531 285.284 461.402 321.787 461.402 321.787C461.402 321.787 469.554 329.264 474.123 329.384C478.691 329.503 484.005 319.921 484.005 319.921L473.424 311.883C473.424 311.883 446.013 286.298 437.874 276.125C434.589 272.019 434.589 271.609 434.589 271.609L435.711 254.534L447.003 222.845L437.143 210.824Z" fill="#2F2E41"/>
<path d="M407.81 99.2797L395.898 98.1789L385.093 99.9794L362.214 99.9867L360.265 116.568L381.144 121.24L386.232 118.746L407.442 126.826L407.81 99.2797Z" fill="#2F2E41"/>
<path d="M422.038 99.2277C422.038 99.2277 447.319 96.8592 453.067 101.376C458.816 105.892 471.135 195.402 471.135 195.402L422.038 198.173L413.236 192.118L415.735 147.431L422.038 99.2277Z" fill="#CCCCCC"/>
<path d="M429.755 98.6701L401.868 99.2821L375.868 216.753L396.4 221.27L429.755 98.6701Z" fill="#2F2E41"/>
<path d="M449.579 97.6772L471.545 104.552L470.298 152.817L497.416 210.521L465.536 213.879L440.338 151.569L449.579 97.6772Z" fill="#2F2E41"/>
<path d="M485.802 216.383C486.572 215.705 487.184 214.867 487.595 213.927C488.006 212.987 488.206 211.968 488.18 210.942C488.155 209.917 487.905 208.909 487.448 207.991C486.991 207.072 486.338 206.265 485.536 205.626L489.955 190.211L481.241 185.24L475.306 207.097C474.322 208.517 473.893 210.248 474.1 211.963C474.307 213.678 475.136 215.257 476.429 216.402C477.723 217.546 479.392 218.176 481.119 218.173C482.846 218.17 484.513 217.533 485.802 216.383Z" fill="#FFB8B8"/>
<path d="M458.816 105.892L471.814 104.765C471.814 104.765 483.483 116.968 486.138 126.417C488.792 135.866 491.667 165.429 491.667 165.429L490.468 208.676L475.274 198.36L474.255 161.161L458.816 105.892Z" fill="#2F2E41"/>
<path d="M455.681 84.1549C460.562 75.2269 457.28 64.0328 448.351 59.1523C439.423 54.2718 428.228 57.553 423.347 66.481C418.466 75.4091 421.747 86.6031 430.676 91.4836C439.605 96.3641 450.8 93.083 455.681 84.1549Z" fill="#FFB8B8"/>
<path d="M437.459 67.6266C435.042 67.068 432.533 67.687 430.084 68.0882C427.636 68.4894 424.937 68.6217 422.866 67.2557C421.337 66.2469 420.396 64.578 419.513 62.9726C419.145 62.3993 418.899 61.7558 418.792 61.0828C418.688 59.8955 419.443 58.8123 420.245 57.9307C423.971 53.8357 429.415 51.5945 434.906 50.8825C439.434 50.2078 444.06 50.7726 448.293 52.5171C452.46 54.345 456.043 57.6923 457.682 61.9378C458.437 64.1107 458.908 66.3719 459.084 68.6653C459.332 70.3527 459.364 72.0648 459.179 73.7602C458.958 75.0171 458.628 76.2522 458.191 77.4514L455.477 85.6468C455.282 86.4213 454.917 87.1428 454.41 87.7594C454.149 88.0614 453.797 88.2708 453.407 88.3561C453.017 88.4415 452.61 88.3984 452.247 88.2331C452.464 87.3429 452.498 86.4178 452.345 85.5144C452.26 85.0641 452.042 84.6496 451.719 84.3243C451.397 83.999 450.984 83.7777 450.534 83.6889C449.534 83.5828 448.679 84.3583 447.73 84.6923C447.296 84.821 446.84 84.8629 446.39 84.8157C445.939 84.7684 445.502 84.6329 445.104 84.4168C444.706 84.2007 444.354 83.9084 444.069 83.5564C443.784 83.2044 443.571 82.7997 443.442 82.3654C443.416 82.2778 443.394 82.1893 443.375 82.0999C443.225 81.163 443.476 80.1599 443.121 79.28C442.705 78.2492 441.602 77.709 440.773 76.9682C440.016 76.2702 439.475 75.3707 439.212 74.3756C438.949 73.3804 438.976 72.331 439.289 71.3505C439.511 70.6685 440.138 70.3584 440.013 69.5749C439.848 68.5469 438.332 67.8283 437.459 67.6266Z" fill="#2F2E41"/>
<path d="M232.615 145.505H0V0H232.615V145.505Z" fill="white"/>
<path d="M232.615 145.505H0V0H232.615V145.505ZM1.06217 144.443H231.553V1.06208H1.06217V144.443Z" fill="#3F3D56"/>
<path d="M204.202 347.034H71.431V201.53H204.202V347.034Z" fill="white"/>
<path d="M204.202 347.034H71.431V201.53H204.202V347.034ZM72.4931 345.972H203.14V202.592H72.4931V345.972Z" fill="#3F3D56"/>
<path d="M186.145 333.292H158.529V334.411H186.145V333.292Z" fill="#3F3D56"/>
<path d="M186.145 336.65H158.529V337.77H186.145V336.65Z" fill="#3F3D56"/>
<path d="M186.145 340.009H158.529V341.128H186.145V340.009Z" fill="#3F3D56"/>
<path d="M137.817 227.551V239.233C144.749 239.233 151.526 241.289 157.29 245.14C163.055 248.991 167.547 254.465 170.2 260.87C172.853 267.274 173.547 274.321 172.195 281.12C170.842 287.918 167.504 294.164 162.602 299.065L170.864 307.326C177.4 300.791 181.851 292.464 183.654 283.399C185.457 274.334 184.532 264.938 180.995 256.399C177.457 247.86 171.467 240.561 163.782 235.426C156.096 230.291 147.06 227.551 137.817 227.551Z" fill="#E6E6E6"/>
<path d="M170.864 307.326L162.602 299.065C156.609 305.059 148.647 308.677 140.191 309.25C131.734 309.824 123.357 307.313 116.61 302.183L109.538 311.487C118.536 318.325 129.706 321.671 140.981 320.906C152.257 320.141 162.873 315.317 170.864 307.326Z" fill="#575A89"/>
<path d="M102.765 274.282C102.765 269.679 103.672 265.122 105.433 260.87C107.195 256.617 109.777 252.754 113.031 249.499C116.286 246.244 120.15 243.663 124.403 241.901C128.656 240.14 133.214 239.233 137.817 239.233V227.551C128.033 227.55 118.496 230.62 110.55 236.328C102.604 242.035 96.65 250.092 93.5267 259.363C90.4033 268.634 90.2684 278.651 93.141 288.002C96.0136 297.354 101.749 305.568 109.538 311.488L116.61 302.183C112.304 298.918 108.813 294.699 106.411 289.858C104.009 285.017 102.761 279.686 102.765 274.282Z" fill="#02AD88"/>
<path d="M400.704 256.758H267.933V111.253H400.704V256.758Z" fill="white"/>
<path d="M400.704 256.758H267.933V111.253H400.704V256.758ZM268.995 255.696H399.642V112.315H268.995V255.696Z" fill="#3F3D56"/>
<path d="M310.95 200.202H287.052V238.437H310.95V200.202Z" fill="#575A89"/>
<path d="M345.471 174.181H321.572V238.437H345.471V174.181Z" fill="#E6E6E6"/>
<path d="M379.992 143.912H356.093V238.437H379.992V143.912Z" fill="#02AD88"/>
<path d="M387.958 239.499H280.679V128.512H281.741V238.437H387.958V239.499Z" fill="#3F3D56"/>
<path d="M362.093 115.127C366.133 115.127 369.408 111.852 369.408 107.812C369.408 103.773 366.133 100.498 362.093 100.498C358.053 100.498 354.779 103.773 354.779 107.812C354.779 111.852 358.053 115.127 362.093 115.127Z" fill="#FFB8B8"/>
<path d="M512.39 359H398.403C398.241 359 398.086 358.936 397.972 358.821C397.857 358.707 397.793 358.552 397.793 358.391C397.793 358.229 397.857 358.074 397.972 357.96C398.086 357.845 398.241 357.781 398.403 357.781H512.39C512.552 357.781 512.707 357.845 512.821 357.96C512.936 358.074 513 358.229 513 358.391C513 358.552 512.936 358.707 512.821 358.821C512.707 358.936 512.552 359 512.39 359Z" fill="#CCCCCC"/>
<path d="M200.311 115.074H32.3047C32.1653 115.074 32.0316 115.019 31.933 114.92C31.8344 114.822 31.779 114.688 31.779 114.548V34.0301C31.779 33.8907 31.8343 33.757 31.933 33.6584C32.0316 33.5598 32.1653 33.5044 32.3047 33.5044C32.4442 33.5044 32.5779 33.5598 32.6765 33.6584C32.7751 33.757 32.8305 33.8907 32.8305 34.0301V114.023H200.311C200.38 114.022 200.448 114.036 200.512 114.062C200.576 114.089 200.635 114.127 200.684 114.176C200.733 114.225 200.771 114.283 200.798 114.347C200.825 114.411 200.838 114.479 200.838 114.548C200.838 114.618 200.825 114.686 200.798 114.75C200.771 114.814 200.733 114.872 200.684 114.921C200.635 114.97 200.576 115.008 200.512 115.035C200.448 115.061 200.38 115.074 200.311 115.074Z" fill="#3F3D56"/>
<path d="M68.2003 109.291H52.9195C52.5057 109.291 52.109 109.126 51.8164 108.834C51.5238 108.541 51.3592 108.144 51.3587 107.731V86.6677C51.3592 86.254 51.5238 85.8573 51.8164 85.5648C52.109 85.2722 52.5057 85.1076 52.9195 85.1072H68.2003C68.6141 85.1076 69.0108 85.2722 69.3034 85.5648C69.596 85.8573 69.7606 86.254 69.7611 86.6677V107.731C69.7606 108.144 69.596 108.541 69.3034 108.834C69.0108 109.126 68.6141 109.291 68.2003 109.291Z" fill="#02AD88"/>
<path d="M96.0667 109.291H80.7859C80.3721 109.291 79.9754 109.126 79.6828 108.833C79.3902 108.541 79.2256 108.144 79.2251 107.731V66.6897C79.2256 66.276 79.3902 65.8793 79.6828 65.5868C79.9754 65.2942 80.3721 65.1297 80.7859 65.1292H96.0667C96.4805 65.1297 96.8772 65.2942 97.1698 65.5868C97.4624 65.8793 97.627 66.276 97.6275 66.6897V107.731C97.627 108.144 97.4624 108.541 97.1698 108.833C96.8772 109.126 96.4805 109.291 96.0667 109.291Z" fill="#02AD88"/>
<path d="M123.933 109.291H108.652C108.239 109.291 107.842 109.126 107.549 108.834C107.257 108.541 107.092 108.144 107.092 107.731V86.6677C107.092 86.254 107.257 85.8573 107.549 85.5648C107.842 85.2722 108.239 85.1076 108.652 85.1072H123.933C124.347 85.1076 124.744 85.2722 125.036 85.5648C125.329 85.8573 125.494 86.254 125.494 86.6677V107.731C125.494 108.144 125.329 108.541 125.036 108.834C124.744 109.126 124.347 109.291 123.933 109.291Z" fill="#02AD88"/>
<path d="M151.8 109.291H136.519C136.114 109.3 135.723 109.148 135.431 108.869C135.138 108.589 134.968 108.206 134.958 107.801V58.733C134.968 58.3287 135.138 57.9449 135.431 57.6657C135.723 57.3864 136.114 57.2345 136.519 57.2432H151.8C152.204 57.2345 152.595 57.3864 152.888 57.6657C153.18 57.9449 153.35 58.3287 153.36 58.733V107.801C153.35 108.206 153.18 108.589 152.888 108.869C152.595 109.148 152.204 109.3 151.8 109.291Z" fill="#02AD88"/>
<path d="M179.666 109.291H164.385C163.971 109.291 163.575 109.126 163.282 108.834C162.99 108.541 162.825 108.144 162.824 107.731V44.6089C162.825 44.1951 162.99 43.7985 163.282 43.5059C163.575 43.2134 163.971 43.0488 164.385 43.0483H179.666C180.08 43.0488 180.477 43.2134 180.769 43.5059C181.062 43.7985 181.226 44.1951 181.227 44.6089V107.731C181.226 108.144 181.062 108.541 180.769 108.834C180.477 109.126 180.08 109.291 179.666 109.291Z" fill="#02AD88"/>
<path d="M60.5599 78.7984C62.3022 78.7984 63.7146 77.3861 63.7146 75.644C63.7146 73.9018 62.3022 72.4896 60.5599 72.4896C58.8176 72.4896 57.4052 73.9018 57.4052 75.644C57.4052 77.3861 58.8176 78.7984 60.5599 78.7984Z" fill="#3F3D56"/>
<path d="M88.4263 58.2947C90.1686 58.2947 91.581 56.8824 91.581 55.1402C91.581 53.3981 90.1686 51.9858 88.4263 51.9858C86.684 51.9858 85.2716 53.3981 85.2716 55.1402C85.2716 56.8824 86.684 58.2947 88.4263 58.2947Z" fill="#3F3D56"/>
<path d="M116.293 78.7984C118.035 78.7984 119.447 77.3861 119.447 75.644C119.447 73.9018 118.035 72.4896 116.293 72.4896C114.55 72.4896 113.138 73.9018 113.138 75.644C113.138 77.3861 114.55 78.7984 116.293 78.7984Z" fill="#3F3D56"/>
<path d="M144.159 48.3057C145.901 48.3057 147.314 46.8934 147.314 45.1512C147.314 43.4091 145.901 41.9968 144.159 41.9968C142.417 41.9968 141.005 43.4091 141.005 45.1512C141.005 46.8934 142.417 48.3057 144.159 48.3057Z" fill="#3F3D56"/>
<path d="M172.026 36.7395C173.768 36.7395 175.18 35.3272 175.18 33.5851C175.18 31.8429 173.768 30.4306 172.026 30.4306C170.283 30.4306 168.871 31.8429 168.871 33.5851C168.871 35.3272 170.283 36.7395 172.026 36.7395Z" fill="#3F3D56"/>
<path d="M116.359 76.3505L88.4265 55.4304L60.8749 76.0647L60.2447 75.2229L88.4265 54.1163L116.226 74.9371L143.852 44.7086L143.963 44.6635L171.829 33.4363L172.222 34.4122L144.466 45.5942L116.359 76.3505Z" fill="#3F3D56"/>
</g>
<defs>
<clipPath id="clip0">
<rect width="513" height="359" fill="white"/>
</clipPath>
</defs>
</svg>
