<svg width="565" height="434" viewBox="0 0 565 434" fill="none" xmlns="http://www.w3.org/2000/svg">
<path opacity="0.1" d="M554.07 98.8186C548.296 87.6008 540.724 77.4038 531.655 68.6321L220.725 66.0424L476.725 35.6509C459.974 30.0469 442.448 27.1081 424.785 26.9419C400.14 10.1189 368.465 0.0250244 333.915 0.0250244C302.915 0.0250244 274.25 8.16909 250.88 21.9875C231.02 13.3385 208.38 8.43406 184.325 8.43406C115.24 8.43406 57.675 48.8794 44.76 102.518L554.07 98.8186Z" fill="#02AD88"/>
<path opacity="0.1" d="M565 143.804C564.979 129.106 561.668 114.6 555.31 101.348L16.43 149.163C10.9603 157.5 6.70907 166.576 3.805 176.115L170.68 197.142L0 212.471C5.135 273.194 66.715 321.138 141.94 321.138C179.805 321.138 214.21 308.99 239.705 289.177C265.28 309.364 300.015 321.778 338.29 321.778C395.075 321.778 444.09 294.446 466.915 254.931C512.705 242.642 548.275 211.796 560.45 173.205L349.415 145.538H565C565 144.958 565 144.383 565 143.804Z" fill="#02AD88"/>
<path opacity="0.1" d="M249.99 433.995C330.066 433.995 394.98 431.099 394.98 427.526C394.98 423.953 330.066 421.057 249.99 421.057C169.914 421.057 105 423.953 105 427.526C105 431.099 169.914 433.995 249.99 433.995Z" fill="#02AD88"/>
<path d="M336.045 416.147V420.057H220.42V416.882C227.472 414.27 233.589 409.624 237.999 403.534C242.409 397.443 244.912 390.181 245.192 382.668C245.472 375.154 243.516 367.726 239.572 361.324C235.628 354.922 229.873 349.835 223.035 346.705H335.26C328.576 349.765 322.923 354.698 318.986 360.906C315.05 367.114 312.999 374.331 313.082 381.681C313.165 389.031 315.379 396.2 319.454 402.317C323.53 408.435 329.293 413.239 336.045 416.147Z" fill="#C8CAD7"/>
<path opacity="0.1" d="M335.26 346.705C330.103 349.073 325.54 352.564 321.906 356.923C318.273 361.282 315.66 366.398 314.26 371.897H244.04C242.639 366.398 240.026 361.282 236.393 356.924C232.759 352.565 228.197 349.073 223.04 346.705H335.26Z" fill="black"/>
<path d="M88 326.787V348.735C88 360.853 96.87 370.677 107.815 370.677H448.025C458.97 370.677 467.84 360.853 467.84 348.735V326.787H88Z" fill="#C8CAD7"/>
<path opacity="0.1" d="M336.045 416.147V420.057H220.42V416.882C223.59 415.703 226.588 414.105 229.335 412.133H328.955C331.168 413.72 333.545 415.066 336.045 416.147Z" fill="black"/>
<path d="M369.505 413.352H186.96C184.337 413.352 182.21 415.479 182.21 418.102V420.187C182.21 422.81 184.337 424.936 186.96 424.936H369.505C372.128 424.936 374.255 422.81 374.255 420.187V418.102C374.255 415.479 372.128 413.352 369.505 413.352Z" fill="#C8CAD7"/>
<path d="M467.84 86.3001C467.833 81.0502 465.743 76.0177 462.027 72.3083C458.312 68.5989 453.275 66.516 448.025 66.5173H107.83C102.577 66.512 97.5368 68.5931 93.8181 72.303C90.0994 76.0128 88.0066 81.0476 88 86.3001V331.057H467.84V86.3001Z" fill="#474157"/>
<path d="M457.5 95.139V305.45C457.501 306.731 457.249 308 456.759 309.183C456.269 310.367 455.55 311.442 454.644 312.348C453.738 313.254 452.663 313.973 451.479 314.463C450.295 314.953 449.026 315.204 447.745 315.204H108.135C106.854 315.204 105.585 314.953 104.401 314.463C103.217 313.973 102.142 313.254 101.236 312.348C100.33 311.442 99.6112 310.367 99.1212 309.183C98.6312 308 98.3793 306.731 98.38 305.45V95.139C98.38 92.5522 99.4078 90.0712 101.237 88.242C103.067 86.4128 105.548 85.3852 108.135 85.3852H447.72C449.003 85.3819 450.274 85.6317 451.461 86.1204C452.647 86.6092 453.726 87.3271 454.634 88.2332C455.542 89.1392 456.263 90.2156 456.755 91.4006C457.247 92.5856 457.5 93.856 457.5 95.139Z" fill="black"/>
<path d="M277.925 80.5108C280.452 80.5108 282.5 78.4627 282.5 75.9363C282.5 73.4099 280.452 71.3618 277.925 71.3618C275.398 71.3618 273.35 73.4099 273.35 75.9363C273.35 78.4627 275.398 80.5108 277.925 80.5108Z" fill="white"/>
<path d="M277.925 360.928C284.155 360.928 289.205 355.879 289.205 349.65C289.205 343.421 284.155 338.371 277.925 338.371C271.695 338.371 266.645 343.421 266.645 349.65C266.645 355.879 271.695 360.928 277.925 360.928Z" fill="white"/>
<path d="M174.265 90.2646V315.204H108.135C106.854 315.204 105.585 314.953 104.401 314.463C103.217 313.973 102.142 313.254 101.236 312.348C100.33 311.443 99.6112 310.367 99.1212 309.183C98.6312 308 98.3793 306.731 98.38 305.45V95.1391L98.735 93.8142L99.685 90.2646H174.265Z" fill="white"/>
<path d="M182.75 93.8142V114.062H98.38V95.1391L98.735 93.8142H182.75Z" fill="black"/>
<path d="M457.5 95.1391H98.38C98.38 93.8584 98.6324 92.5903 99.1227 91.4072C99.613 90.2241 100.332 89.1491 101.237 88.2438C102.143 87.3385 103.219 86.6205 104.402 86.1308C105.586 85.6412 106.854 85.3895 108.135 85.3902H447.72C449.003 85.3862 450.274 85.6355 451.46 86.1236C452.647 86.6118 453.725 87.3293 454.634 88.2349C455.542 89.1406 456.263 90.2166 456.755 91.4014C457.247 92.5861 457.5 93.8563 457.5 95.1391Z" fill="#C8CAD7"/>
<path d="M108.135 92.7043C109.483 92.7043 110.575 91.612 110.575 90.2645C110.575 88.9171 109.483 87.8248 108.135 87.8248C106.787 87.8248 105.695 88.9171 105.695 90.2645C105.695 91.612 106.787 92.7043 108.135 92.7043Z" fill="#02AD88"/>
<path d="M115.45 92.7043C116.798 92.7043 117.89 91.612 117.89 90.2645C117.89 88.9171 116.798 87.8248 115.45 87.8248C114.102 87.8248 113.01 88.9171 113.01 90.2645C113.01 91.612 114.102 92.7043 115.45 92.7043Z" fill="#02AD88"/>
<path d="M122.765 92.7043C124.113 92.7043 125.205 91.612 125.205 90.2645C125.205 88.9171 124.113 87.8248 122.765 87.8248C121.417 87.8248 120.325 88.9171 120.325 90.2645C120.325 91.612 121.417 92.7043 122.765 92.7043Z" fill="#02AD88"/>
<path d="M161.655 102.728H110.99V107.393H161.655V102.728Z" fill="#02AD88"/>
<path opacity="0.5" d="M161.655 125.476H110.99V130.14H161.655V125.476Z" fill="#02AD88"/>
<path opacity="0.5" d="M161.655 141.559H110.99V146.223H161.655V141.559Z" fill="#02AD88"/>
<path opacity="0.5" d="M161.655 157.642H110.99V162.306H161.655V157.642Z" fill="#02AD88"/>
<path opacity="0.5" d="M161.655 173.72H110.99V178.384H161.655V173.72Z" fill="#02AD88"/>
<path opacity="0.5" d="M161.655 189.803H110.99V194.468H161.655V189.803Z" fill="#02AD88"/>
<path opacity="0.5" d="M161.655 205.886H110.99V210.551H161.655V205.886Z" fill="#02AD88"/>
<path opacity="0.5" d="M161.655 221.964H110.99V226.629H161.655V221.964Z" fill="#02AD88"/>
<path opacity="0.5" d="M440.25 119.881H215.745V120.631H440.25V119.881Z" fill="#DCE0ED"/>
<path opacity="0.5" d="M440.25 137.294H215.745V138.044H440.25V137.294Z" fill="#DCE0ED"/>
<path opacity="0.5" d="M440.25 154.712H215.745V155.462H440.25V154.712Z" fill="#DCE0ED"/>
<path opacity="0.5" d="M440.25 172.125H215.745V172.875H440.25V172.125Z" fill="#DCE0ED"/>
<path opacity="0.5" d="M440.25 189.538H215.745V190.288H440.25V189.538Z" fill="#DCE0ED"/>
<path opacity="0.5" d="M440.255 190.283H215.47V156.037L236.085 166.196L257.42 169.086L276.14 163.441L298.725 145.928L310.085 139.369L318.39 137.769L326.335 138.194L339.405 144.648L357.165 155.962L371.105 157.757L382.16 153.947L405.585 134.76L417.545 130.495L430.06 132.43L440.255 138.314V190.283Z" fill="#02AD88"/>
<path d="M254.65 169.096C234.41 169.096 215.7 156.717 215.47 156.557L216.025 155.727C216.315 155.922 245.105 174.97 269.57 165.426C278.5 161.951 284.84 156.537 291 151.308C297.415 145.843 303.475 140.679 311.73 138.439C321.23 135.874 331.555 138.199 339.42 144.658C346.14 150.183 359.53 159.057 373.675 156.402C380.885 155.052 386.965 149.783 393.4 144.208C405.72 133.51 418.5 122.466 440.545 138.324L439.96 139.134C418.535 123.741 406.08 134.53 394.04 144.963C387.5 150.633 381.32 155.962 373.845 157.387C359.295 160.112 345.625 151.068 338.77 145.433C331.155 139.174 321.14 136.934 311.98 139.409C303.935 141.589 297.98 146.678 291.635 152.068C285.43 157.352 279.01 162.821 269.935 166.361C265.055 168.216 259.871 169.143 254.65 169.096Z" fill="#02AD88"/>
<path d="M323.775 143.233C326.848 143.233 329.34 140.742 329.34 137.669C329.34 134.596 326.848 132.105 323.775 132.105C320.702 132.105 318.21 134.596 318.21 137.669C318.21 140.742 320.702 143.233 323.775 143.233Z" fill="#02AD88"/>
<path d="M184.31 258.59C176.705 254.211 173.81 253.126 173.81 253.121L173.655 253.011C172.824 252.374 172.165 251.541 171.735 250.586C171.735 250.411 171.735 250.236 171.735 250.086V250.136C171.86 247.817 173.505 245.712 175.07 243.872C176.403 242.302 177.737 240.734 179.07 239.168C179.53 238.692 179.881 238.122 180.1 237.498C180.181 237.171 180.218 236.835 180.21 236.498C180.21 236.358 180.21 236.223 180.21 236.088C180.21 234.918 180.155 233.748 180.115 232.588C180.075 231.563 179.815 230.279 178.79 230.089C178.26 229.979 177.56 230.169 177.29 229.714C177.192 229.528 177.167 229.312 177.22 229.109C177.22 229.109 177.22 229.139 177.22 229.154C177.218 229.135 177.218 229.117 177.22 229.099C177.417 228.31 177.544 227.505 177.6 226.694C177.618 226.282 177.562 225.871 177.435 225.479C176.84 223.784 174.805 223.089 173.005 222.769C171.205 222.449 169.185 222.174 168.055 220.77C167.745 220.301 167.411 219.849 167.055 219.415C166.531 218.953 165.895 218.639 165.21 218.505C162.977 217.952 160.623 218.158 158.52 219.09C157.65 219.48 156.775 220 155.82 219.945C154.865 219.89 153.98 219.195 153 219.03C151.42 218.76 149.905 219.925 149.125 221.3C148.662 222.116 148.416 223.036 148.41 223.974C148.41 224.024 148.41 224.079 148.41 224.129C148.39 225.138 148.759 226.115 149.44 226.859C150.12 227.569 151.135 228.054 151.44 228.984C151.555 229.364 151.53 229.774 151.63 230.154C151.63 230.204 151.66 230.249 151.675 230.299L151.62 230.364C149.996 232.454 149.116 235.026 149.12 237.673C149.136 240.243 149.967 242.741 151.495 244.808C153.023 246.874 155.168 248.402 157.62 249.171C157.62 249.286 157.62 249.406 157.62 249.531C157.654 250.282 157.524 251.031 157.239 251.726C156.954 252.421 156.521 253.045 155.97 253.556L145.18 257.885C145.18 257.885 138.68 257.115 136.34 266.609C135.965 268.185 135.83 269.808 135.94 271.424C136.025 272.859 135.825 275.378 134.16 278.638C131.495 283.857 132.1 295.831 137.55 297.016C142.695 298.136 144.71 297.671 144.92 297.616V297.826C144.835 300.075 144.02 319.453 141.055 321.823C140.23 322.468 140.385 322.908 141.055 323.203C141.055 323.203 141.055 323.328 141.055 323.553C140.965 324.973 140.505 330.367 138.52 333.442C136.24 336.986 136.5 357.484 136.5 357.484L134.93 369.578C134.93 369.578 135.895 377.047 134.93 378.351C134.065 379.516 132.93 407.153 132.67 413.143H132.57C132.095 413.171 131.635 413.316 131.229 413.563C130.822 413.81 130.483 414.154 130.24 414.562C128.95 416.632 124.5 420.447 124.5 420.447C123.535 421.822 119.955 423.136 118.065 423.756C117.812 423.838 117.568 423.943 117.335 424.071C116.627 424.457 116.059 425.055 115.71 425.781C115.587 425.995 115.509 426.231 115.48 426.476C115.45 426.721 115.471 426.969 115.54 427.206C116.04 428.391 126.075 429.206 128.615 428.036C130.615 427.106 138.535 425.876 141.825 425.396C142.422 425.321 142.977 425.049 143.403 424.624C143.828 424.198 144.1 423.643 144.175 423.046C144.207 422.84 144.196 422.63 144.145 422.428C144.093 422.227 144.001 422.037 143.875 421.871C143.245 421.092 142.92 418.962 142.775 417.572C143.042 417.463 143.291 417.314 143.515 417.132C143.245 412.823 143.863 408.504 145.33 404.443C147.75 398.044 148.48 386.186 147.875 378.476C147.875 378.476 155.26 346.695 161.075 343.73C161.165 343.84 163.985 347.46 164.345 358.669C164.705 370.052 168.82 377.522 168.82 377.522C168.82 377.522 167.005 396.849 168.82 404.084L166.435 415.477C166.336 415.396 166.24 415.309 166.15 415.217C166.15 415.217 166.22 415.537 166.32 416.042L166.27 416.282L166.37 416.307C166.64 417.732 167.04 420.217 166.87 421.677C166.775 422.511 166.545 423.646 166.37 424.766C166.12 426.521 166.05 428.226 166.975 428.596C168.475 429.206 177.39 430.041 178.905 428.096C179.245 427.697 179.466 427.212 179.543 426.694C179.621 426.176 179.552 425.647 179.345 425.166C179.235 424.898 179.087 424.647 178.905 424.421C178.905 424.421 176.54 420.557 177.21 417.832C177.271 417.566 177.278 417.291 177.229 417.023C177.18 416.754 177.076 416.499 176.925 416.272C177.272 411.959 177.966 407.68 179 403.479C180.5 397.774 183.71 385.266 181.36 377.037C181.27 376.717 181.17 376.397 181.06 376.087C179.702 371.596 179.249 366.881 179.725 362.213C178.85 358.23 178.85 354.104 179.725 350.12C181.165 343.486 182.18 336.986 182.18 336.986C182.18 336.986 182.98 328.212 182.28 322.833L182.235 322.488L182.615 322.403C182.615 322.403 180.56 313.274 179.83 307.465C179.66 306.09 179.435 304.355 179.19 302.5C179.86 302.385 180.521 302.218 181.165 302C187.705 299.746 189.76 279.348 189.76 279.348V272.879C189.76 272.879 191.94 262.995 184.31 258.59ZM135.595 416.072L135.275 415.902L135.595 416.072Z" fill="url(#paint0_linear)"/>
<path d="M180.365 376.282C183.2 384.436 179.865 397.669 178.365 403.579C177.355 407.852 176.686 412.198 176.365 416.577C172.915 417.159 169.385 417.078 165.965 416.337L168.465 404.168C166.695 396.959 168.465 377.697 168.465 377.697C168.465 377.697 164.465 370.247 164.095 358.904C163.745 347.74 160.995 344.13 160.905 344.015C155.19 346.985 148 378.646 148 378.646C148.59 386.326 147.88 398.144 145.5 404.528C144.066 408.581 143.462 412.881 143.725 417.172C142.9 417.867 141.75 417.987 140.51 417.787C137.135 417.242 133.09 414.332 133.09 414.332C133.09 414.332 134.39 379.836 135.335 378.526C136.28 377.217 135.335 369.782 135.335 369.782L136.87 357.729C136.87 357.729 136.635 337.286 138.87 333.732C140.81 330.667 141.255 325.288 141.345 323.878C141.345 323.653 141.345 323.528 141.345 323.528L144.765 319.433C144.765 319.433 177.86 316.934 180.34 319.433C180.95 320.043 181.34 321.433 181.55 323.173C182.23 328.532 181.45 337.276 181.45 337.276C181.45 337.276 180.45 343.775 179.04 350.39C178.187 354.362 178.187 358.471 179.04 362.443C178.578 367.098 179.028 371.799 180.365 376.282Z" fill="#65617D"/>
<path d="M178.295 428.101C176.82 430.05 168.135 429.226 166.655 428.601C165.75 428.226 165.82 426.531 166.065 424.781C166.22 423.666 166.445 422.531 166.535 421.706C166.775 419.577 165.83 415.262 165.83 415.262C165.83 415.262 167.78 417.332 168.25 415.262C168.359 414.867 168.573 414.51 168.87 414.228C169.167 413.946 169.535 413.75 169.935 413.662C170.948 413.356 172.037 413.424 173.005 413.852C174.54 414.517 177.1 415.937 176.64 417.852C175.99 420.567 178.295 424.416 178.295 424.416C178.474 424.642 178.619 424.893 178.725 425.161C178.932 425.643 179.002 426.173 178.926 426.692C178.85 427.211 178.632 427.698 178.295 428.101Z" fill="#A27772"/>
<path opacity="0.1" d="M178.295 428.101C176.82 430.05 168.135 429.225 166.655 428.601C165.75 428.226 165.82 426.531 166.065 424.781C166.995 425.216 168.565 425.581 171.225 425.336C171.843 425.276 172.464 425.256 173.085 425.276C174.965 425.364 176.85 425.327 178.725 425.166C178.931 425.647 179 426.176 178.925 426.694C178.849 427.212 178.631 427.699 178.295 428.101Z" fill="black"/>
<path opacity="0.1" d="M148 378.646C148.59 386.325 147.88 398.144 145.5 404.528C144.066 408.581 143.462 412.881 143.725 417.172C142.9 417.867 141.75 417.987 140.51 417.787C141.225 412.787 144.26 391.325 146.21 374.362C148.425 355.039 158.795 341.746 158.795 341.746L160.865 344.02C155.19 346.985 148 378.646 148 378.646Z" fill="black"/>
<path d="M174.75 254.446L173.305 261.535L166.24 273.414L157.525 269.689C157.525 269.689 145.675 257.28 153.12 255.511C154.013 255.32 154.855 254.945 155.595 254.411C157.055 253.306 157.515 251.706 157.525 250.136C157.466 248.378 157.055 246.648 156.315 245.052L171.56 240.267C170.929 242.269 170.561 244.345 170.465 246.442C170.35 250.591 171.89 252.641 173.155 253.616C173.626 253.996 174.168 254.278 174.75 254.446Z" fill="#FBBEBE"/>
<path opacity="0.1" d="M171.56 240.267C170.929 242.269 170.561 244.345 170.465 246.442C168.92 248.275 166.864 249.605 164.559 250.263C162.254 250.921 159.805 250.877 157.525 250.136C157.466 248.377 157.055 246.648 156.315 245.052L171.56 240.267Z" fill="black"/>
<path d="M173.305 238.318C173.305 240.702 172.598 243.032 171.273 245.014C169.949 246.996 168.066 248.541 165.863 249.454C163.66 250.366 161.237 250.605 158.898 250.14C156.56 249.674 154.412 248.526 152.726 246.841C151.04 245.155 149.892 243.007 149.427 240.669C148.962 238.331 149.2 235.907 150.113 233.705C151.025 231.502 152.57 229.62 154.553 228.295C156.535 226.971 158.866 226.264 161.25 226.264C162.834 226.26 164.404 226.569 165.868 227.173C167.332 227.778 168.663 228.665 169.783 229.786C170.903 230.906 171.791 232.236 172.395 233.7C173 235.164 173.309 236.734 173.305 238.318Z" fill="#FBBEBE"/>
<path opacity="0.1" d="M174.75 254.446L173.305 261.535L166.24 273.413L157.525 269.689C157.525 269.689 145.675 257.28 153.12 255.511C154.013 255.32 154.855 254.945 155.595 254.411C154.25 258.105 159.8 265.789 159.8 265.789C160.445 266.739 161.93 266.144 161.93 266.144C165.5 265.604 172.085 255.326 173.155 253.616C173.626 253.996 174.168 254.278 174.75 254.446Z" fill="black"/>
<path opacity="0.1" d="M181.575 323.183C179.475 323.683 167.865 326.227 163.465 325.587C158.62 324.878 149.195 324.408 149.195 324.408C149.195 324.408 143.195 324.728 141.355 323.908C141.355 323.683 141.355 323.558 141.355 323.558L144.775 319.463C144.775 319.463 177.87 316.963 180.35 319.463C181 320.053 181.35 321.438 181.575 323.183Z" fill="black"/>
<path d="M159.8 266.144C159.8 266.144 153.565 257.51 155.915 254.146L145.38 258.465C145.38 258.465 139.04 257.695 136.755 267.154C136.389 268.728 136.256 270.347 136.36 271.959C136.445 273.384 136.25 275.893 134.625 279.143C132.025 284.342 132.625 296.281 137.935 297.461C143.245 298.641 145.145 298.051 145.145 298.051C145.145 298.051 144.435 319.678 141.365 322.158C138.295 324.638 149.2 324.048 149.2 324.048C149.2 324.048 158.62 324.548 163.465 325.233C168.31 325.917 181.9 322.733 181.9 322.733C181.9 322.733 179.9 313.634 179.18 307.845C178.46 302.055 176.82 289.727 176.82 289.727L188.875 273.399C188.875 273.399 191 263.53 183.555 259.16C176.11 254.791 173.305 253.711 173.305 253.711C173.305 253.711 165.805 265.894 161.925 266.484C161.925 266.494 160.445 267.094 159.8 266.144Z" fill="#FF748E"/>
<path opacity="0.1" d="M145.97 269.574C145.97 269.574 145.855 273.474 146.565 275.008C147.275 276.543 149.87 285.052 149.87 285.052H143.965C143.965 285.052 147.155 281.628 146.92 279.973C146.685 278.318 145.97 269.574 145.97 269.574Z" fill="black"/>
<path d="M163.465 298.991C163.465 298.991 150.415 295.801 149.2 293.086C147.985 290.372 144.63 284.282 144.63 284.282L146.005 282.427L152.355 287.427C152.355 287.427 159.92 293.426 163.465 294.046C167.01 294.666 163.465 298.991 163.465 298.991Z" fill="#FBBEBE"/>
<path opacity="0.05" d="M163.465 298.991C163.465 298.991 150.415 295.801 149.2 293.086C147.985 290.372 144.63 284.282 144.63 284.282L146.005 282.427L152.355 287.427C152.355 287.427 159.92 293.426 163.465 294.046C167.01 294.666 163.465 298.991 163.465 298.991Z" fill="black"/>
<path d="M174.75 283.637V290.716H173.61C167.987 290.717 162.457 292.148 157.54 294.876L155.41 296.056L154.835 296.376L151.17 288.127L154.6 285.052H154.775C155.615 285.132 159.24 285.432 160.775 284.917C162.31 284.402 164.05 282.847 168.345 283.947C170.465 284.487 172.27 286.862 174.345 286.122L174.75 283.637Z" fill="#FBBEBE"/>
<path opacity="0.1" d="M186.155 270.754L188.52 273.414V279.853C188.52 279.853 186.52 300.18 180.13 302.425C173.74 304.67 162.355 301.125 162.355 301.125C162.355 301.125 159.41 293.326 160.785 292.851C162.16 292.376 172.955 289.532 172.955 289.532C172.955 289.532 172.8 277.608 175.165 274.063C175.165 274.063 173.63 262.955 178.945 262.72C184.26 262.485 186.155 270.754 186.155 270.754Z" fill="black"/>
<path d="M186.5 270.754L188.865 273.414V279.853C188.865 279.853 186.865 300.18 180.47 302.425C174.075 304.67 162.7 301.125 162.7 301.125C162.7 301.125 159.755 293.326 161.13 292.851C162.505 292.376 173.295 289.532 173.295 289.532C173.295 289.532 173.145 277.608 175.51 274.063C175.51 274.063 173.97 262.955 179.29 262.72C184.61 262.485 186.5 270.754 186.5 270.754Z" fill="#FF748E"/>
<path opacity="0.1" d="M170 243.437C170.105 242.66 170.012 241.869 169.73 241.137C169.582 240.776 169.318 240.473 168.979 240.278C168.641 240.082 168.247 240.005 167.86 240.057C166.86 240.292 166.41 241.607 165.42 241.922C164.585 242.187 163.67 241.597 163.27 240.817C162.935 240.004 162.795 239.124 162.86 238.248C162.86 237.248 162.86 236.273 162.86 235.283C162.86 234.208 162.825 233.048 162.16 232.203C161.335 231.153 159.4 230.703 158.11 230.738C157.249 230.747 156.423 231.079 155.795 231.668C155.48 231.986 155.097 232.228 154.676 232.379C154.255 232.53 153.805 232.584 153.36 232.538C152.968 232.478 152.6 232.308 152.3 232.048C152 231.788 151.78 231.448 151.665 231.068C151.663 231.055 151.663 231.042 151.665 231.028C152.67 229.7 153.938 228.595 155.392 227.782C156.845 226.968 158.451 226.465 160.108 226.303C161.766 226.141 163.439 226.325 165.022 226.841C166.605 227.358 168.063 228.197 169.306 229.306C170.548 230.415 171.548 231.769 172.241 233.283C172.934 234.797 173.306 236.438 173.333 238.103C173.36 239.768 173.042 241.42 172.399 242.956C171.755 244.492 170.801 245.878 169.595 247.026C169.795 245.838 169.93 244.64 170 243.437Z" fill="black"/>
<path d="M153.355 232.183C152.962 232.122 152.595 231.952 152.294 231.692C151.994 231.432 151.772 231.093 151.655 230.713C151.56 230.333 151.585 229.924 151.47 229.549C151.195 228.619 150.205 228.134 149.54 227.429C148.21 226.019 148.295 223.694 149.235 221.994C150 220.625 151.475 219.47 153.02 219.735C153.975 219.905 154.8 220.585 155.77 220.645C156.74 220.705 157.555 220.185 158.405 219.795C160.453 218.867 162.756 218.663 164.935 219.215C165.606 219.348 166.228 219.661 166.735 220.12C167.079 220.552 167.4 221.003 167.695 221.47C168.795 222.874 170.77 223.149 172.525 223.469C174.28 223.789 176.27 224.469 176.845 226.174C177.23 227.294 176.845 228.509 176.64 229.674C176.564 229.912 176.58 230.171 176.685 230.398C176.96 230.853 177.645 230.663 178.185 230.768C179.185 230.978 179.435 232.268 179.47 233.268C179.517 234.428 179.548 235.595 179.565 236.768C179.594 237.202 179.561 237.638 179.465 238.063C179.249 238.668 178.909 239.222 178.465 239.687L174.56 244.377C172.83 246.457 170.995 248.876 171.34 251.561C170.52 251.926 169.55 251.221 169.28 250.361C169.01 249.501 169.225 248.581 169.41 247.702C169.724 246.18 169.93 244.638 170.025 243.087C170.13 242.308 170.038 241.516 169.755 240.782C169.606 240.42 169.341 240.118 169.002 239.923C168.662 239.727 168.268 239.65 167.88 239.702C166.88 239.937 166.435 241.252 165.445 241.567C164.61 241.837 163.695 241.242 163.295 240.462C162.963 239.649 162.822 238.769 162.885 237.893V234.928C162.885 233.853 162.85 232.693 162.185 231.848C161.365 230.798 159.425 230.348 158.135 230.383C157.274 230.392 156.448 230.724 155.82 231.313C155.501 231.635 155.114 231.88 154.687 232.031C154.26 232.182 153.805 232.234 153.355 232.183Z" fill="#7C5C5C"/>
<path opacity="0.1" d="M156.075 269.279L159.78 284.477C159.78 284.477 162.695 284.462 156.075 269.279Z" fill="black"/>
<path opacity="0.1" d="M168.725 266.734C168.725 266.734 163.875 274.673 165.77 282.877L166.67 282.942C166.67 282.942 165.06 279.143 168.725 266.734Z" fill="black"/>
<path opacity="0.1" d="M171.795 311.644C171.795 311.644 177.745 309.674 178.18 314.244C178.18 314.244 177.055 311.109 171.795 311.644Z" fill="black"/>
<path opacity="0.1" d="M154.6 285.407C154.6 285.407 153.42 293.681 155.545 296.991C152.211 298.165 148.672 298.647 145.145 298.406L144.435 285.407H154.6Z" fill="black"/>
<path opacity="0.1" d="M155.41 296.056L154.835 296.376L151.17 288.127L154.6 285.052H154.775C154.72 285.452 153.765 292.556 155.41 296.056Z" fill="black"/>
<path d="M154.6 285.052C154.6 285.052 153.42 293.326 155.545 296.636C152.211 297.81 148.672 298.292 145.145 298.051L141.01 285.052H154.6Z" fill="#FF748E"/>
<path d="M144.375 423.071C144.307 423.661 144.044 424.211 143.629 424.635C143.213 425.058 142.668 425.332 142.08 425.411C138.875 425.911 131.14 427.111 129.19 428.041C126.69 429.226 116.9 428.396 116.425 427.216C116.358 426.979 116.339 426.731 116.368 426.486C116.397 426.242 116.474 426.006 116.595 425.791C116.824 425.321 117.145 424.901 117.539 424.558C117.933 424.214 118.393 423.953 118.89 423.791C120.74 423.171 124.23 421.866 125.17 420.497C125.17 420.497 129.52 416.687 130.76 414.632C130.993 414.227 131.322 413.885 131.719 413.639C132.116 413.392 132.568 413.247 133.035 413.217C134.07 413.167 135.22 413.692 135.695 415.957C135.695 415.957 141.365 419.192 142.9 416.357C142.9 416.357 143.135 420.712 144.075 421.906C144.199 422.071 144.29 422.259 144.341 422.459C144.393 422.659 144.404 422.867 144.375 423.071Z" fill="#A27772"/>
<path opacity="0.1" d="M144.375 423.071C144.307 423.661 144.044 424.211 143.629 424.635C143.213 425.058 142.668 425.331 142.08 425.411C138.875 425.911 131.14 427.111 129.19 428.041C126.69 429.226 116.9 428.396 116.425 427.216C116.358 426.979 116.339 426.731 116.368 426.486C116.397 426.242 116.474 426.006 116.595 425.791C116.932 425.072 117.486 424.477 118.18 424.091C119.78 425.151 123.33 426.191 131.14 424.971C138.59 423.806 142.275 422.666 144.075 421.891C144.201 422.058 144.293 422.248 144.344 422.451C144.396 422.654 144.406 422.864 144.375 423.071Z" fill="black"/>
<g opacity="0.1">
<path opacity="0.1" d="M176.625 229.834C176.627 229.814 176.627 229.793 176.625 229.774C176.859 228.899 176.981 227.999 176.99 227.094C176.915 227.818 176.793 228.536 176.625 229.244C176.58 229.438 176.58 229.639 176.625 229.834Z" fill="black"/>
<path opacity="0.1" d="M169.73 240.892C169.915 241.319 170.014 241.777 170.02 242.242C170.074 241.601 169.974 240.957 169.73 240.362C169.581 240 169.316 239.697 168.977 239.501C168.638 239.304 168.243 239.226 167.855 239.277C166.855 239.512 166.41 240.832 165.42 241.147C164.585 241.412 163.67 240.817 163.27 240.037C162.933 239.225 162.792 238.345 162.86 237.468C162.86 236.468 162.86 235.493 162.86 234.508C162.86 233.433 162.825 232.273 162.16 231.428C161.335 230.373 159.4 229.929 158.105 229.959C157.245 229.968 156.42 230.302 155.795 230.893C155.479 231.21 155.097 231.452 154.675 231.601C154.254 231.751 153.805 231.805 153.36 231.758C152.966 231.7 152.597 231.531 152.296 231.271C151.995 231.01 151.774 230.67 151.66 230.288C151.56 229.909 151.59 229.504 151.475 229.124C151.2 228.194 150.21 227.714 149.545 227.009C148.925 226.321 148.57 225.435 148.545 224.509C148.498 225.056 148.562 225.606 148.734 226.127C148.906 226.648 149.182 227.128 149.545 227.539C150.21 228.244 151.2 228.729 151.475 229.659C151.59 230.034 151.56 230.443 151.66 230.823C151.777 231.203 151.998 231.543 152.299 231.803C152.599 232.063 152.967 232.233 153.36 232.293C153.805 232.339 154.255 232.285 154.676 232.134C155.097 231.984 155.48 231.741 155.795 231.423C156.423 230.841 157.244 230.511 158.1 230.498C159.395 230.458 161.33 230.918 162.155 231.968C162.82 232.813 162.85 233.968 162.855 235.048C162.855 236.048 162.855 237.023 162.855 238.008C162.787 238.886 162.927 239.768 163.265 240.582C163.665 241.362 164.58 241.952 165.415 241.687C166.415 241.372 166.84 240.057 167.85 239.817C168.238 239.766 168.632 239.843 168.972 240.037C169.311 240.231 169.578 240.532 169.73 240.892Z" fill="black"/>
<path opacity="0.1" d="M179.445 237.638C179.228 238.244 178.888 238.799 178.445 239.267C177.138 240.827 175.837 242.389 174.54 243.952C172.9 245.927 171.16 248.211 171.285 250.731C171.405 248.421 173.015 246.322 174.54 244.487L178.445 239.797C178.888 239.331 179.228 238.778 179.445 238.173C179.541 237.746 179.575 237.309 179.545 236.873C179.542 237.131 179.509 237.388 179.445 237.638Z" fill="black"/>
<path opacity="0.1" d="M169.255 249.941C169.191 249.735 169.15 249.522 169.135 249.306C169.102 249.699 169.143 250.094 169.255 250.471C169.52 251.331 170.495 252.036 171.315 251.671C171.315 251.496 171.28 251.321 171.275 251.171C170.465 251.496 169.5 250.781 169.255 249.941Z" fill="black"/>
</g>
<path opacity="0.1" d="M130 415.687C130 415.687 131.235 417.857 135.715 415.942L130 415.687Z" fill="black"/>
<path opacity="0.1" d="M167.825 416.207C167.825 416.207 171.69 420.752 176.555 417.707L167.825 416.207Z" fill="black"/>
<path opacity="0.1" d="M179.065 362.453C179.065 362.453 176.335 364.158 176.245 365.133C176.155 366.108 177.655 364.423 177.655 364.423L179.065 362.453Z" fill="black"/>
<path opacity="0.1" d="M180.14 375.522C179.193 376.313 178.013 376.773 176.78 376.832C174.74 376.922 174.91 379.581 176.245 378.781C177.58 377.981 180.14 375.522 180.14 375.522Z" fill="black"/>
<path opacity="0.1" d="M180.66 377.227C180.66 377.227 179.35 383.656 178.285 382.416L180.66 377.227Z" fill="black"/>
<g opacity="0.5">
<path opacity="0.5" d="M268.585 229.299H235.585V236.298H268.585V229.299Z" fill="#DCE0ED"/>
<path opacity="0.5" d="M344.36 229.299H311.36V236.298H344.36V229.299Z" fill="#DCE0ED"/>
<path opacity="0.5" d="M420.135 229.299H387.135V236.298H420.135V229.299Z" fill="#DCE0ED"/>
</g>
<path opacity="0.1" d="M476.365 402.874C483.801 402.874 489.83 401.855 489.83 400.599C489.83 399.343 483.801 398.324 476.365 398.324C468.928 398.324 462.9 399.343 462.9 400.599C462.9 401.855 468.928 402.874 476.365 402.874Z" fill="#02AD88"/>
<path opacity="0.1" d="M57.61 431.595C65.0465 431.595 71.075 430.577 71.075 429.321C71.075 428.064 65.0465 427.046 57.61 427.046C50.1735 427.046 44.145 428.064 44.145 429.321C44.145 430.577 50.1735 431.595 57.61 431.595Z" fill="#02AD88"/>
<path d="M446.895 428.376C457.999 428.376 467 426.854 467 424.976C467 423.098 457.999 421.576 446.895 421.576C435.791 421.576 426.79 423.098 426.79 424.976C426.79 426.854 435.791 428.376 446.895 428.376Z" fill="#02AD88"/>
<path d="M455.205 419.422C456.123 418.674 456.791 417.664 457.12 416.527C457.37 415.377 456.88 414.002 455.785 413.582C454.555 413.112 453.24 413.962 452.24 414.827C451.24 415.692 450.105 416.667 448.8 416.487C449.47 415.879 449.971 415.107 450.255 414.248C450.539 413.389 450.596 412.47 450.42 411.583C450.364 411.215 450.208 410.869 449.97 410.583C449.285 409.853 448.05 410.163 447.23 410.738C444.63 412.567 443.905 416.097 443.89 419.277C443.63 418.132 443.85 416.937 443.845 415.777C443.84 414.617 443.515 413.277 442.525 412.662C441.911 412.334 441.221 412.172 440.525 412.193C439.355 412.148 438.05 412.263 437.255 413.117C436.255 414.182 436.52 415.962 437.38 417.117C438.24 418.272 439.56 419.017 440.765 419.827C441.733 420.405 442.56 421.192 443.185 422.131C443.256 422.264 443.315 422.403 443.36 422.546H450.69C452.328 421.711 453.847 420.66 455.205 419.422Z" fill="#02AD88"/>
<path d="M58.225 395.574C58.225 395.574 60.975 399.169 56.96 404.573C52.945 409.978 49.635 414.572 50.96 417.957C50.96 417.957 57.02 407.883 61.96 407.743C66.9 407.603 63.65 401.634 58.225 395.574Z" fill="#02AD88"/>
<path opacity="0.1" d="M58.225 395.574C58.4656 395.923 58.6558 396.303 58.79 396.704C63.6 402.354 66.16 407.628 61.535 407.758C57.23 407.883 52.065 415.582 50.825 417.527C50.8658 417.678 50.9142 417.826 50.97 417.972C50.97 417.972 57.03 407.898 61.97 407.758C66.91 407.618 63.65 401.634 58.225 395.574Z" fill="black"/>
<path d="M63.33 400.154C63.33 401.419 63.19 402.444 63.015 402.444C62.84 402.444 62.7 401.444 62.7 400.154C62.7 398.864 62.875 399.484 63.05 399.484C63.225 399.484 63.33 398.889 63.33 400.154Z" fill="#FFD037"/>
<path d="M65.085 401.664C63.975 402.269 63.005 402.634 62.925 402.479C62.845 402.324 63.67 401.709 64.78 401.104C65.89 400.499 65.455 400.939 65.535 401.104C65.615 401.269 66.195 401.059 65.085 401.664Z" fill="#FFD037"/>
<path d="M43.72 395.574C43.72 395.574 40.97 399.169 44.985 404.573C49 409.978 52.31 414.572 50.985 417.957C50.985 417.957 44.93 407.883 39.985 407.743C35.04 407.603 38.295 401.634 43.72 395.574Z" fill="#02AD88"/>
<path opacity="0.1" d="M43.72 395.574C43.4795 395.923 43.2892 396.303 43.155 396.704C38.345 402.354 35.785 407.628 40.41 407.758C44.715 407.883 49.88 415.582 51.12 417.527C51.0798 417.678 51.0297 417.827 50.97 417.972C50.97 417.972 44.915 407.898 39.97 407.758C35.025 407.618 38.295 401.634 43.72 395.574Z" fill="black"/>
<path d="M38.61 400.154C38.61 401.419 38.755 402.444 38.93 402.444C39.105 402.444 39.245 401.444 39.245 400.154C39.245 398.864 39.07 399.484 38.895 399.484C38.72 399.484 38.61 398.889 38.61 400.154Z" fill="#FFD037"/>
<path d="M36.86 401.664C37.97 402.269 38.935 402.634 39.02 402.479C39.105 402.324 38.275 401.709 37.165 401.104C36.055 400.499 36.49 400.939 36.405 401.104C36.32 401.269 35.75 401.059 36.86 401.664Z" fill="#FFD037"/>
<path d="M39.5 417.502C39.5 417.502 47.18 417.262 49.5 415.617C51.82 413.972 61.315 411.998 61.89 414.642C62.465 417.287 73.43 427.786 64.76 427.856C56.09 427.926 44.615 426.506 42.305 425.101C39.995 423.696 39.5 417.502 39.5 417.502Z" fill="#A8A8A8"/>
<path opacity="0.2" d="M64.895 426.936C56.225 427.006 44.745 425.586 42.435 424.181C40.68 423.106 39.975 419.262 39.745 417.492H39.485C39.485 417.492 39.985 423.681 42.285 425.091C44.585 426.501 56.07 427.916 64.74 427.846C67.24 427.846 68.105 426.936 68.06 425.616C67.71 426.426 66.755 426.921 64.895 426.936Z" fill="black"/>
<path d="M233.25 278.178C233.25 267.959 241.565 260.11 251.79 260.11H251.935V255.461H251.79C239 255.461 228.6 265.394 228.6 278.178C228.6 281.485 229.309 284.754 230.679 287.764C232.05 290.774 234.05 293.455 236.545 295.626L239.84 292.331C237.776 290.595 236.117 288.429 234.978 285.984C233.84 283.539 233.25 280.875 233.25 278.178Z" fill="#02AD88"/>
<path opacity="0.5" d="M252.4 255.466V260.115C255.378 260.135 258.307 260.872 260.939 262.263C263.571 263.655 265.83 265.66 267.523 268.109C269.216 270.558 270.294 273.379 270.666 276.333C271.038 279.287 270.693 282.287 269.659 285.079C268.626 287.872 266.935 290.374 264.73 292.374C262.524 294.374 259.869 295.814 256.989 296.571C254.11 297.328 251.09 297.38 248.186 296.723C245.281 296.066 242.578 294.719 240.305 292.796L237 296.091C239.816 298.553 243.186 300.297 246.823 301.174C250.459 302.051 254.254 302.035 257.883 301.127C261.512 300.219 264.867 298.447 267.662 295.961C270.458 293.475 272.61 290.35 273.935 286.852C275.26 283.355 275.719 279.588 275.272 275.875C274.825 272.161 273.486 268.611 271.369 265.527C269.252 262.443 266.421 259.917 263.116 258.165C259.811 256.413 256.131 255.487 252.39 255.466H252.4Z" fill="#02AD88"/>
<path opacity="0.5" d="M404.4 259.875C414.62 259.875 422.47 268.189 422.47 278.413C422.47 278.458 422.47 278.508 422.47 278.558H427.12C427.12 278.508 427.12 278.458 427.12 278.413C427.12 265.629 417.185 255.226 404.4 255.226C401.092 255.225 397.823 255.933 394.813 257.304C391.802 258.674 389.121 260.674 386.95 263.17L390.245 266.464C391.981 264.401 394.148 262.742 396.593 261.603C399.038 260.465 401.703 259.875 404.4 259.875Z" fill="#02AD88"/>
<path d="M427.115 279.023H422.465C422.445 282 421.708 284.929 420.317 287.561C418.925 290.193 416.92 292.451 414.47 294.144C412.021 295.837 409.2 296.915 406.245 297.287C403.291 297.659 400.29 297.313 397.498 296.28C394.705 295.247 392.203 293.556 390.202 291.351C388.202 289.146 386.762 286.491 386.005 283.612C385.247 280.732 385.195 277.713 385.852 274.809C386.51 271.905 387.857 269.202 389.78 266.929L386.5 263.635C384.038 266.45 382.294 269.82 381.417 273.456C380.539 277.092 380.556 280.887 381.463 284.515C382.371 288.144 384.144 291.499 386.63 294.294C389.116 297.088 392.241 299.24 395.739 300.565C399.238 301.89 403.005 302.349 406.719 301.902C410.433 301.455 413.983 300.117 417.068 298C420.152 295.883 422.678 293.052 424.43 289.747C426.182 286.443 427.109 282.763 427.13 279.023H427.115Z" fill="#02AD88"/>
<path opacity="0.5" d="M337 256.825L336.075 261.455C342.88 264.2 347.23 270.869 347.23 278.643C347.231 281.984 346.329 285.263 344.619 288.133C342.909 291.003 340.455 293.358 337.517 294.948C334.578 296.538 331.265 297.304 327.926 297.165C324.588 297.027 321.349 295.989 318.553 294.161C315.756 292.332 313.506 289.783 312.04 286.781C310.574 283.779 309.946 280.436 310.224 277.107C310.502 273.778 311.675 270.586 313.618 267.868C315.562 265.151 318.204 263.009 321.265 261.67L319.205 257.495C315.405 259.206 312.136 261.909 309.743 265.32C307.35 268.731 305.921 272.725 305.606 276.879C305.291 281.034 306.103 285.197 307.955 288.93C309.807 292.663 312.631 295.827 316.13 298.091C319.629 300.354 323.673 301.632 327.838 301.791C332.002 301.949 336.132 300.982 339.793 298.992C343.454 297.001 346.511 294.061 348.641 290.48C350.772 286.899 351.898 282.81 351.9 278.643C351.9 268.609 345.96 260.05 337 256.825Z" fill="#02AD88"/>
<path d="M329.295 259.84C331.516 259.839 333.713 260.295 335.75 261.18L336.675 256.555C334.32 255.649 331.818 255.186 329.295 255.191C326.019 255.19 322.781 255.887 319.795 257.235L321.875 261.4C324.213 260.369 326.74 259.838 329.295 259.84Z" fill="#02AD88"/>
<defs>
<linearGradient id="paint0_linear" x1="152.75" y1="429.321" x2="152.75" y2="218.185" gradientUnits="userSpaceOnUse">
<stop stop-color="#808080" stop-opacity="0.25"/>
<stop offset="0.54" stop-color="#808080" stop-opacity="0.12"/>
<stop offset="1" stop-color="#808080" stop-opacity="0.1"/>
</linearGradient>
</defs>
</svg>
