<svg width="504" height="319" viewBox="0 0 504 319" fill="none" xmlns="http://www.w3.org/2000/svg">
<path d="M203.671 147.408H9.78082C7.18768 147.405 4.70158 146.373 2.86795 144.538C1.03432 142.703 0.00290705 140.214 0 137.619V28.7906C0.00290705 26.1954 1.03432 23.7073 2.86795 21.8721C4.70158 20.037 7.18768 19.0047 9.78082 19.0018H203.671C206.264 19.0048 208.75 20.037 210.584 21.8721C212.418 23.7073 213.449 26.1954 213.452 28.7906V137.619C213.449 140.214 212.418 142.703 210.584 144.538C208.75 146.373 206.264 147.405 203.671 147.408ZM9.78082 20.1535C7.49276 20.156 5.29915 21.0669 3.68125 22.6861C2.06335 24.3053 1.15327 26.5007 1.15068 28.7906V137.619C1.15327 139.909 2.06335 142.104 3.68125 143.724C5.29915 145.343 7.49276 146.254 9.78082 146.256H203.671C205.959 146.254 208.153 145.343 209.771 143.724C211.389 142.104 212.299 139.909 212.301 137.619V28.7906C212.299 26.5007 211.389 24.3053 209.771 22.6861C208.153 21.0669 205.959 20.156 203.671 20.1535H9.78082Z" fill="#E6E6E6"/>
<path d="M154.537 62.3679H117.14C116.453 62.3679 115.795 62.6409 115.309 63.1269C114.824 63.6128 114.551 64.2719 114.551 64.9591C114.551 65.6463 114.824 66.3054 115.309 66.7913C115.795 67.2772 116.453 67.5502 117.14 67.5502H154.537C155.224 67.5502 155.882 67.2772 156.368 66.7913C156.853 66.3054 157.126 65.6463 157.126 64.9591C157.126 64.2719 156.853 63.6128 156.368 63.1269C155.882 62.6409 155.224 62.3679 154.537 62.3679Z" fill="#E6E6E6"/>
<path d="M190.991 78.7786H116.645C115.489 78.7786 114.551 79.9417 114.551 81.3697C114.551 82.7977 115.489 83.9609 116.645 83.9609H190.991C192.147 83.9609 193.085 82.7977 193.085 81.3697C193.085 79.9417 192.147 78.7786 190.991 78.7786Z" fill="#E6E6E6"/>
<path d="M190.991 95.5848H116.645C115.489 95.5848 114.551 96.748 114.551 98.176C114.551 99.604 115.489 100.767 116.645 100.767H190.991C192.147 100.767 193.085 99.604 193.085 98.176C193.085 96.748 192.147 95.5848 190.991 95.5848Z" fill="#E6E6E6"/>
<path d="M88.6028 123.512H24.1644C22.5628 123.51 21.0272 122.872 19.8947 121.739C18.7622 120.605 18.1251 119.069 18.1233 117.466V45.4891C18.1251 43.8862 18.7622 42.3494 19.8947 41.216C21.0272 40.0825 22.5628 39.4449 24.1644 39.4431H88.6028C90.2044 39.4449 91.7399 40.0825 92.8724 41.216C94.005 42.3494 94.642 43.8862 94.6438 45.4891V117.466C94.642 119.069 94.005 120.605 92.8724 121.739C91.7399 122.872 90.2044 123.51 88.6028 123.512Z" fill="#E6E6E6"/>
<path d="M208.274 41.4585C219.713 41.4585 228.986 32.1777 228.986 20.7292C228.986 9.2808 219.713 0 208.274 0C196.835 0 187.562 9.2808 187.562 20.7292C187.562 32.1777 196.835 41.4585 208.274 41.4585Z" fill="#E6E6E6"/>
<path d="M478.685 147.408H284.794C282.201 147.405 279.715 146.373 277.882 144.538C276.048 142.703 275.017 140.214 275.014 137.619V28.7906C275.017 26.1954 276.048 23.7073 277.882 21.8721C279.715 20.037 282.201 19.0047 284.794 19.0018H478.685C481.278 19.0048 483.764 20.037 485.598 21.8721C487.431 23.7073 488.463 26.1954 488.466 28.7906V137.619C488.463 140.214 487.431 142.703 485.598 144.538C483.764 146.373 481.278 147.405 478.685 147.408ZM284.794 20.1535C282.506 20.156 280.313 21.0669 278.695 22.6861C277.077 24.3053 276.167 26.5007 276.164 28.7906V137.619C276.167 139.909 277.077 142.104 278.695 143.724C280.313 145.343 282.506 146.254 284.794 146.256H478.685C480.973 146.254 483.167 145.343 484.784 143.724C486.402 142.104 487.312 139.909 487.315 137.619V28.7906C487.312 26.5007 486.402 24.3053 484.784 22.6861C483.167 21.0669 480.973 20.156 478.685 20.1535H284.794Z" fill="#3F3D56"/>
<path d="M429.551 62.3679H392.154C391.467 62.3679 390.808 62.6409 390.323 63.1269C389.837 63.6128 389.565 64.2719 389.565 64.9591C389.565 65.6463 389.837 66.3054 390.323 66.7913C390.808 67.2772 391.467 67.5502 392.154 67.5502H429.551C430.238 67.5502 430.896 67.2772 431.382 66.7913C431.867 66.3054 432.14 65.6463 432.14 64.9591C432.14 64.2719 431.867 63.6128 431.382 63.1269C430.896 62.6409 430.238 62.3679 429.551 62.3679Z" fill="#3F3D56"/>
<path d="M466.004 78.7786H391.659C390.502 78.7786 389.565 79.9417 389.565 81.3697C389.565 82.7977 390.502 83.9609 391.659 83.9609H466.004C467.161 83.9609 468.099 82.7977 468.099 81.3697C468.099 79.9417 467.161 78.7786 466.004 78.7786Z" fill="#3F3D56"/>
<path d="M466.004 95.5848H391.659C390.502 95.5848 389.565 96.748 389.565 98.176C389.565 99.604 390.502 100.767 391.659 100.767H466.004C467.161 100.767 468.099 99.604 468.099 98.176C468.099 96.748 467.161 95.5848 466.004 95.5848Z" fill="#3F3D56"/>
<path d="M363.616 123.512H299.178C297.576 123.51 296.041 122.872 294.908 121.739C293.776 120.605 293.139 119.069 293.137 117.466V45.4891C293.139 43.8862 293.776 42.3494 294.908 41.216C296.041 40.0825 297.576 39.4449 299.178 39.4431H363.616C365.218 39.4449 366.754 40.0825 367.886 41.216C369.019 42.3494 369.656 43.8862 369.658 45.4891V117.466C369.656 119.069 369.019 120.605 367.886 121.739C366.754 122.872 365.218 123.51 363.616 123.512Z" fill="#02AD88"/>
<path d="M483.288 41.4585C494.727 41.4585 504 32.1777 504 20.7292C504 9.2808 494.727 0 483.288 0C471.849 0 462.575 9.2808 462.575 20.7292C462.575 32.1777 471.849 41.4585 483.288 41.4585Z" fill="#02AD88"/>
<path d="M482.123 29.1207C481.559 29.1217 481.009 28.9389 480.557 28.5999L480.529 28.5789L474.63 24.0585C474.356 23.8492 474.126 23.588 473.953 23.2897C473.78 22.9914 473.667 22.6618 473.622 22.32C473.576 21.9781 473.598 21.6306 473.687 21.2973C473.776 20.9641 473.93 20.6516 474.139 20.3778C474.349 20.1041 474.61 19.8744 474.909 19.7018C475.207 19.5293 475.536 19.4174 475.878 19.3725C476.22 19.3276 476.567 19.3505 476.9 19.44C477.233 19.5296 477.545 19.6839 477.818 19.8942L481.639 22.8266L490.669 11.0407C490.878 10.7673 491.139 10.5379 491.437 10.3656C491.735 10.1932 492.064 10.0813 492.405 10.0362C492.747 9.99115 493.093 10.0138 493.426 10.1028C493.758 10.1919 494.07 10.3456 494.343 10.5552L494.287 10.6315L494.345 10.5563C494.896 10.9801 495.256 11.6053 495.347 12.2947C495.438 12.9842 495.252 13.6816 494.83 14.234L484.209 28.097C483.963 28.4165 483.647 28.675 483.285 28.8525C482.924 29.03 482.526 29.1218 482.123 29.1207Z" fill="white"/>
<path d="M203.671 319H9.78082C7.18768 318.997 4.70158 317.965 2.86795 316.13C1.03432 314.295 0.00290705 311.806 0 309.211V200.383C0.00290705 197.787 1.03432 195.299 2.86795 193.464C4.70158 191.629 7.18768 190.597 9.78082 190.594H203.671C206.264 190.597 208.75 191.629 210.584 193.464C212.418 195.299 213.449 197.787 213.452 200.383V309.211C213.449 311.806 212.418 314.295 210.584 316.13C208.75 317.965 206.264 318.997 203.671 319ZM9.78082 191.745C7.49276 191.748 5.29915 192.659 3.68125 194.278C2.06335 195.897 1.15327 198.093 1.15068 200.383V309.211C1.15327 311.501 2.06335 313.697 3.68125 315.316C5.29915 316.935 7.49276 317.846 9.78082 317.848H203.671C205.959 317.846 208.153 316.935 209.771 315.316C211.389 313.697 212.299 311.501 212.301 309.211V200.383C212.299 198.093 211.389 195.897 209.771 194.278C208.153 192.659 205.959 191.748 203.671 191.745H9.78082Z" fill="#3F3D56"/>
<path d="M154.537 233.96H117.14C116.453 233.96 115.795 234.233 115.309 234.719C114.824 235.205 114.551 235.864 114.551 236.551C114.551 237.238 114.824 237.897 115.309 238.383C115.795 238.869 116.453 239.142 117.14 239.142H154.537C155.224 239.142 155.882 238.869 156.368 238.383C156.853 237.897 157.126 237.238 157.126 236.551C157.126 235.864 156.853 235.205 156.368 234.719C155.882 234.233 155.224 233.96 154.537 233.96Z" fill="#3F3D56"/>
<path d="M190.991 250.371H116.645C115.489 250.371 114.551 251.534 114.551 252.962C114.551 254.39 115.489 255.553 116.645 255.553H190.991C192.147 255.553 193.085 254.39 193.085 252.962C193.085 251.534 192.147 250.371 190.991 250.371Z" fill="#3F3D56"/>
<path d="M190.991 267.177H116.645C115.489 267.177 114.551 268.34 114.551 269.768C114.551 271.196 115.489 272.359 116.645 272.359H190.991C192.147 272.359 193.085 271.196 193.085 269.768C193.085 268.34 192.147 267.177 190.991 267.177Z" fill="#3F3D56"/>
<path d="M88.6028 295.104H24.1644C22.5628 295.102 21.0272 294.464 19.8947 293.331C18.7622 292.197 18.1251 290.661 18.1233 289.058V217.081C18.1251 215.478 18.7622 213.941 19.8947 212.808C21.0272 211.675 22.5628 211.037 24.1644 211.035H88.6028C90.2044 211.037 91.7399 211.675 92.8724 212.808C94.005 213.941 94.642 215.478 94.6438 217.081V289.058C94.642 290.661 94.005 292.197 92.8724 293.331C91.7399 294.464 90.2044 295.102 88.6028 295.104Z" fill="#02AD88"/>
<path d="M208.274 213.051C219.713 213.051 228.986 203.77 228.986 192.321C228.986 180.873 219.713 171.592 208.274 171.592C196.835 171.592 187.562 180.873 187.562 192.321C187.562 203.77 196.835 213.051 208.274 213.051Z" fill="#02AD88"/>
<path d="M207.11 200.713C206.545 200.714 205.995 200.531 205.543 200.192L205.515 200.171L199.616 195.651C199.342 195.441 199.112 195.18 198.939 194.882C198.766 194.583 198.654 194.254 198.608 193.912C198.562 193.57 198.585 193.223 198.673 192.889C198.762 192.556 198.916 192.244 199.125 191.97C199.335 191.696 199.597 191.466 199.895 191.294C200.193 191.121 200.523 191.009 200.865 190.965C201.206 190.92 201.553 190.943 201.886 191.032C202.219 191.122 202.531 191.276 202.804 191.486L206.625 194.419L215.655 182.633C215.864 182.359 216.126 182.13 216.424 181.958C216.722 181.785 217.051 181.673 217.392 181.628C217.733 181.583 218.08 181.606 218.412 181.695C218.745 181.784 219.057 181.938 219.33 182.147L219.273 182.224L219.331 182.148C219.882 182.572 220.243 183.197 220.333 183.887C220.424 184.576 220.238 185.274 219.816 185.826L209.195 199.689C208.949 200.008 208.633 200.267 208.272 200.445C207.91 200.622 207.512 200.714 207.11 200.713Z" fill="white"/>
<path d="M478.685 319H284.794C282.201 318.997 279.715 317.965 277.882 316.13C276.048 314.295 275.017 311.806 275.014 309.211V200.383C275.017 197.787 276.048 195.299 277.882 193.464C279.715 191.629 282.201 190.597 284.794 190.594H478.685C481.278 190.597 483.764 191.629 485.598 193.464C487.431 195.299 488.463 197.787 488.466 200.383V309.211C488.463 311.806 487.431 314.295 485.598 316.13C483.764 317.965 481.278 318.997 478.685 319ZM284.794 191.745C282.506 191.748 280.313 192.659 278.695 194.278C277.077 195.897 276.167 198.093 276.164 200.383V309.211C276.167 311.501 277.077 313.697 278.695 315.316C280.313 316.935 282.506 317.846 284.794 317.848H478.685C480.973 317.846 483.167 316.935 484.784 315.316C486.402 313.697 487.312 311.501 487.315 309.211V200.383C487.312 198.093 486.402 195.897 484.784 194.278C483.167 192.659 480.973 191.748 478.685 191.745H284.794Z" fill="#3F3D56"/>
<path d="M429.551 233.96H392.154C391.467 233.96 390.808 234.233 390.323 234.719C389.837 235.205 389.565 235.864 389.565 236.551C389.565 237.238 389.837 237.897 390.323 238.383C390.808 238.869 391.467 239.142 392.154 239.142H429.551C430.238 239.142 430.896 238.869 431.382 238.383C431.867 237.897 432.14 237.238 432.14 236.551C432.14 235.864 431.867 235.205 431.382 234.719C430.896 234.233 430.238 233.96 429.551 233.96Z" fill="#3F3D56"/>
<path d="M466.004 250.371H391.659C390.502 250.371 389.565 251.534 389.565 252.962C389.565 254.39 390.502 255.553 391.659 255.553H466.004C467.161 255.553 468.099 254.39 468.099 252.962C468.099 251.534 467.161 250.371 466.004 250.371Z" fill="#3F3D56"/>
<path d="M466.004 267.177H391.659C390.502 267.177 389.565 268.34 389.565 269.768C389.565 271.196 390.502 272.359 391.659 272.359H466.004C467.161 272.359 468.099 271.196 468.099 269.768C468.099 268.34 467.161 267.177 466.004 267.177Z" fill="#3F3D56"/>
<path d="M363.616 295.104H299.178C297.576 295.102 296.041 294.464 294.908 293.331C293.776 292.197 293.139 290.661 293.137 289.058V217.081C293.139 215.478 293.776 213.941 294.908 212.808C296.041 211.675 297.576 211.037 299.178 211.035H363.616C365.218 211.037 366.754 211.675 367.886 212.808C369.019 213.941 369.656 215.478 369.658 217.081V289.058C369.656 290.661 369.019 292.197 367.886 293.331C366.754 294.464 365.218 295.102 363.616 295.104Z" fill="#02AD88"/>
<path d="M483.288 213.051C494.727 213.051 504 203.77 504 192.321C504 180.873 494.727 171.592 483.288 171.592C471.849 171.592 462.575 180.873 462.575 192.321C462.575 203.77 471.849 213.051 483.288 213.051Z" fill="#02AD88"/>
<path d="M482.123 200.713C481.559 200.714 481.009 200.531 480.557 200.192L480.529 200.171L474.63 195.651C474.356 195.441 474.126 195.18 473.953 194.882C473.78 194.583 473.667 194.254 473.622 193.912C473.576 193.57 473.598 193.223 473.687 192.889C473.776 192.556 473.93 192.244 474.139 191.97C474.349 191.696 474.61 191.466 474.909 191.294C475.207 191.121 475.536 191.009 475.878 190.965C476.22 190.92 476.567 190.943 476.9 191.032C477.233 191.122 477.545 191.276 477.818 191.486L481.639 194.419L490.669 182.633C490.878 182.359 491.139 182.13 491.437 181.958C491.735 181.785 492.064 181.673 492.405 181.628C492.747 181.583 493.093 181.606 493.426 181.695C493.758 181.784 494.07 181.938 494.343 182.147L494.287 182.224L494.345 182.148C494.896 182.572 495.256 183.197 495.347 183.887C495.438 184.576 495.252 185.274 494.83 185.826L484.209 199.689C483.963 200.008 483.647 200.267 483.285 200.445C482.924 200.622 482.526 200.714 482.123 200.713Z" fill="white"/>
<path d="M333.528 109.21C332.077 109.17 330.271 109.119 328.88 108.102C328.466 107.787 328.125 107.385 327.883 106.924C327.64 106.463 327.501 105.955 327.476 105.435C327.45 105.065 327.511 104.695 327.653 104.352C327.794 104.01 328.013 103.705 328.292 103.461C328.706 103.152 329.192 102.951 329.704 102.877C330.216 102.803 330.738 102.859 331.223 103.039L330.038 94.3745L330.908 94.2552L332.301 104.442L331.575 104.108C330.733 103.722 329.577 103.525 328.859 104.132C328.682 104.291 328.545 104.488 328.457 104.709C328.369 104.929 328.334 105.167 328.353 105.404C328.374 105.791 328.478 106.169 328.659 106.512C328.839 106.855 329.091 107.156 329.398 107.393C330.48 108.184 331.919 108.286 333.552 108.332L333.528 109.21Z" fill="white"/>
<path d="M325.738 95.1217H321.01V96.0002H325.738V95.1217Z" fill="white"/>
<path d="M340.66 95.1217H335.932V96.0002H340.66V95.1217Z" fill="white"/>
<path d="M312.797 82.9907C308.99 82.5562 306.041 78.9056 305.717 75.2015C305.332 70.7949 307.896 66.6097 311.414 64.1369C315.093 61.5509 319.676 60.471 324.111 60.2333C332.762 59.8025 341.264 62.6071 347.964 68.1018C351.287 70.864 354.391 74.3826 355.567 78.6326C356.588 82.3235 355.757 86.5048 352.791 89.0899C352.057 89.7233 351.2 90.1977 350.274 90.4831C349.348 90.7685 348.373 90.8586 347.41 90.7479C345.109 90.5087 342.985 89.2976 341.147 87.96C337.571 85.3582 334.636 81.7336 330.28 80.3739C327.086 79.377 322.941 80.2545 320.989 83.1454C320.546 83.8071 320.259 84.5609 320.149 85.3498C320.109 85.5181 320.134 85.6954 320.22 85.8459C320.305 85.9963 320.444 86.1087 320.609 86.1603C320.778 86.2057 320.957 86.1828 321.109 86.0967C321.26 86.0105 321.372 85.868 321.419 85.7001C321.931 82.059 326.405 80.7003 329.544 81.5319C334.121 82.7442 337.194 86.8319 340.949 89.4289C342.893 90.8795 345.183 91.7943 347.59 92.082C349.678 92.2459 351.749 91.6089 353.385 90.3003C356.593 87.765 357.82 83.4044 357.111 79.4784C356.289 74.932 353.232 71.0355 349.877 68.0187C343.076 61.9676 334.246 58.7032 325.148 58.876C320.507 58.9827 315.665 59.9415 311.667 62.3963C307.789 64.7774 304.792 68.761 304.4 73.3915C304.056 77.4673 306.241 81.7303 309.991 83.5159C310.876 83.9351 311.824 84.203 312.797 84.3085C313.637 84.4044 313.63 83.0859 312.797 82.9907H312.797Z" fill="white"/>
<path d="M333.528 278.499C332.077 278.459 330.271 278.408 328.88 277.391C328.466 277.076 328.125 276.674 327.883 276.213C327.64 275.752 327.501 275.244 327.476 274.724C327.45 274.354 327.511 273.984 327.653 273.641C327.794 273.299 328.013 272.994 328.292 272.75C328.706 272.441 329.192 272.24 329.704 272.166C330.216 272.092 330.738 272.148 331.223 272.328L330.038 263.663L330.908 263.544L332.301 273.73L331.575 273.397C330.733 273.01 329.577 272.814 328.859 273.421C328.682 273.58 328.545 273.777 328.457 273.998C328.369 274.218 328.334 274.456 328.353 274.693C328.374 275.08 328.478 275.458 328.659 275.801C328.839 276.144 329.091 276.445 329.398 276.682C330.48 277.473 331.919 277.575 333.552 277.621L333.528 278.499Z" fill="white"/>
<path d="M325.738 264.411H321.01V265.289H325.738V264.411Z" fill="white"/>
<path d="M340.66 264.411H335.932V265.289H340.66V264.411Z" fill="white"/>
<path d="M312.797 252.28C308.99 251.845 306.041 248.194 305.717 244.49C305.332 240.084 307.896 235.898 311.414 233.426C315.093 230.84 319.676 229.76 324.111 229.522C332.762 229.091 341.264 231.896 347.964 237.391C351.287 240.153 354.391 243.671 355.567 247.921C356.588 251.612 355.757 255.794 352.791 258.379C352.057 259.012 351.2 259.487 350.274 259.772C349.348 260.057 348.373 260.147 347.41 260.037C345.109 259.798 342.985 258.586 341.147 257.249C337.571 254.647 334.636 251.022 330.28 249.663C327.086 248.666 322.941 249.543 320.989 252.434C320.546 253.096 320.259 253.85 320.149 254.639C320.109 254.807 320.134 254.984 320.22 255.135C320.305 255.285 320.444 255.398 320.609 255.449C320.778 255.494 320.957 255.472 321.109 255.385C321.26 255.299 321.372 255.157 321.419 254.989C321.931 251.348 326.405 249.989 329.544 250.821C334.121 252.033 337.194 256.121 340.949 258.718C342.893 260.168 345.183 261.083 347.59 261.371C349.678 261.535 351.749 260.898 353.385 259.589C356.593 257.054 357.82 252.693 357.111 248.767C356.289 244.221 353.232 240.324 349.877 237.308C343.076 231.256 334.246 227.992 325.148 228.165C320.507 228.272 315.665 229.23 311.667 231.685C307.789 234.066 304.792 238.05 304.4 242.68C304.056 246.756 306.241 251.019 309.991 252.805C310.876 253.224 311.824 253.492 312.797 253.597C313.637 253.693 313.63 252.375 312.797 252.28H312.797Z" fill="white"/>
<path d="M55.6373 278.499C54.1862 278.459 52.3802 278.408 50.9897 277.391C50.5754 277.076 50.2351 276.674 49.9924 276.213C49.7498 275.752 49.6108 275.244 49.5851 274.724C49.56 274.354 49.6206 273.984 49.7623 273.641C49.9039 273.299 50.1227 272.994 50.4016 272.75C50.8161 272.441 51.3015 272.24 51.8134 272.166C52.3254 272.092 52.8477 272.148 53.3326 272.328L52.148 263.663L53.0176 263.544L54.4103 273.73L53.6842 273.397C52.8422 273.01 51.6865 272.814 50.9682 273.421C50.7919 273.58 50.6545 273.777 50.5668 273.998C50.4791 274.218 50.4433 274.456 50.4624 274.693C50.4836 275.08 50.588 275.458 50.7683 275.801C50.9486 276.144 51.2007 276.445 51.5074 276.682C52.5895 277.473 54.0291 277.575 55.662 277.621L55.6373 278.499Z" fill="white"/>
<path d="M47.8472 264.411H43.1196V265.289H47.8472V264.411Z" fill="white"/>
<path d="M62.7695 264.411H58.0419V265.289H62.7695V264.411Z" fill="white"/>
<path d="M34.9062 252.28C31.0991 251.845 28.1507 248.194 27.8269 244.49C27.4416 240.084 30.0058 235.898 33.5236 233.426C37.2025 230.84 41.786 229.76 46.2207 229.522C54.8719 229.091 63.3739 231.896 70.0736 237.391C73.3966 240.153 76.5001 243.671 77.6763 247.921C78.6979 251.612 77.8666 255.794 74.9005 258.379C74.1667 259.012 73.3098 259.487 72.3837 259.772C71.4576 260.057 70.4824 260.147 69.5197 260.037C67.2182 259.798 65.0947 258.586 63.2566 257.249C59.681 254.647 56.7456 251.022 52.3894 249.663C49.1953 248.666 45.0503 249.543 43.0984 252.434C42.6555 253.096 42.3685 253.85 42.259 254.639C42.2186 254.807 42.2437 254.984 42.3291 255.135C42.4144 255.285 42.5537 255.398 42.7188 255.449C42.8871 255.494 43.0665 255.472 43.2181 255.385C43.3697 255.299 43.4813 255.157 43.5286 254.989C44.041 251.348 48.5145 249.989 51.6536 250.821C56.2306 252.033 59.3031 256.121 63.0583 258.718C65.0021 260.168 67.2922 261.083 69.6998 261.371C71.7873 261.535 73.859 260.898 75.4946 259.589C78.7027 257.054 79.9295 252.693 79.2201 248.767C78.3987 244.221 75.3411 240.324 71.9864 237.308C65.1854 231.256 56.3559 227.992 47.2576 228.165C42.6169 228.272 37.7749 229.23 33.777 231.685C29.899 234.066 26.9017 238.05 26.51 242.68C26.1652 246.756 28.3501 251.019 32.1008 252.805C32.9851 253.224 33.9334 253.492 34.9062 253.597C35.7467 253.693 35.7398 252.375 34.9062 252.28H34.9062Z" fill="white"/>
<path d="M55.6373 110.362C54.1862 110.321 52.3802 110.271 50.9897 109.254C50.5754 108.939 50.2351 108.537 49.9924 108.076C49.7498 107.615 49.6108 107.107 49.5851 106.586C49.56 106.217 49.6206 105.846 49.7623 105.504C49.9039 105.162 50.1227 104.857 50.4016 104.613C50.8161 104.303 51.3015 104.102 51.8134 104.029C52.3254 103.955 52.8477 104.011 53.3326 104.191L52.148 95.5261L53.0176 95.4069L54.4103 105.593L53.6842 105.26C52.8422 104.873 51.6865 104.677 50.9682 105.284C50.7919 105.443 50.6545 105.64 50.5668 105.86C50.4791 106.081 50.4433 106.319 50.4624 106.555C50.4836 106.943 50.588 107.321 50.7683 107.664C50.9486 108.007 51.2007 108.307 51.5074 108.544C52.5895 109.336 54.0291 109.438 55.662 109.484L55.6373 110.362Z" fill="#3F3D56"/>
<path d="M47.8472 96.2733H43.1196V97.1518H47.8472V96.2733Z" fill="#3F3D56"/>
<path d="M62.7695 96.2733H58.0419V97.1518H62.7695V96.2733Z" fill="#3F3D56"/>
<path d="M34.9062 84.1423C31.0991 83.7079 28.1507 80.0572 27.8269 76.3531C27.4416 71.9465 30.0058 67.7613 33.5236 65.2885C37.2025 62.7026 41.786 61.6226 46.2207 61.3849C54.8719 60.9541 63.3739 63.7587 70.0736 69.2535C73.3966 72.0156 76.5001 75.5342 77.6763 79.7842C78.6979 83.4751 77.8666 87.6565 74.9005 90.2415C74.1667 90.8749 73.3098 91.3494 72.3837 91.6347C71.4576 91.9201 70.4824 92.0103 69.5197 91.8995C67.2182 91.6603 65.0947 90.4492 63.2566 89.1117C59.681 86.5098 56.7456 82.8852 52.3894 81.5255C49.1953 80.5286 45.0503 81.4061 43.0984 84.297C42.6555 84.9587 42.3685 85.7125 42.259 86.5014C42.2186 86.6697 42.2437 86.847 42.3291 86.9975C42.4144 87.1479 42.5537 87.2603 42.7188 87.3119C42.8871 87.3573 43.0665 87.3344 43.2181 87.2483C43.3697 87.1621 43.4813 87.0196 43.5286 86.8517C44.041 83.2106 48.5145 81.8519 51.6536 82.6835C56.2306 83.8959 59.3031 87.9835 63.0583 90.5805C65.0021 92.0311 67.2922 92.9459 69.6998 93.2336C71.7873 93.3975 73.859 92.7605 75.4946 91.4519C78.7027 88.9166 79.9295 84.556 79.2201 80.63C78.3987 76.0836 75.3411 72.1871 71.9864 69.1703C65.1854 63.1192 56.3559 59.8548 47.2576 60.0276C42.6169 60.1343 37.7749 61.0931 33.777 63.5479C29.899 65.929 26.9017 69.9126 26.51 74.5431C26.1652 78.6189 28.3501 82.8819 32.1008 84.6675C32.9851 85.0868 33.9334 85.3546 34.9062 85.4601C35.7467 85.556 35.7398 84.2375 34.9062 84.1423H34.9062Z" fill="#3F3D56"/>
</svg>
